<mxfile host="app.diagrams.net" agent="Mozilla/5.0 (Macintosh; Intel Mac OS X 10_15_7) AppleWebKit/605.1.15 (KHTML, like Gecko) Version/17.6 Safari/605.1.15" version="27.1.4">
  <diagram name="Page-1" id="xR3ECMjT_v_V7rz9qy7K">
    <mxGraphModel dx="946" dy="652" grid="1" gridSize="10" guides="1" tooltips="1" connect="1" arrows="1" fold="1" page="1" pageScale="1" pageWidth="827" pageHeight="1169" math="0" shadow="0">
      <root>
        <mxCell id="0" />
        <mxCell id="1" parent="0" />
        <mxCell id="vQSaiQfxS73kR9lanArh-3" value="" style="edgeStyle=orthogonalEdgeStyle;rounded=0;orthogonalLoop=1;jettySize=auto;html=1;" edge="1" parent="1" source="vQSaiQfxS73kR9lanArh-1" target="vQSaiQfxS73kR9lanArh-2">
          <mxGeometry relative="1" as="geometry" />
        </mxCell>
        <mxCell id="vQSaiQfxS73kR9lanArh-1" value="Data" style="rounded=0;whiteSpace=wrap;html=1;" vertex="1" parent="1">
          <mxGeometry x="330" y="180" width="120" height="60" as="geometry" />
        </mxCell>
        <mxCell id="vQSaiQfxS73kR9lanArh-5" value="" style="edgeStyle=orthogonalEdgeStyle;rounded=0;orthogonalLoop=1;jettySize=auto;html=1;" edge="1" parent="1" source="vQSaiQfxS73kR9lanArh-2" target="vQSaiQfxS73kR9lanArh-4">
          <mxGeometry relative="1" as="geometry" />
        </mxCell>
        <mxCell id="vQSaiQfxS73kR9lanArh-2" value="GENERATE&amp;nbsp;" style="rounded=0;whiteSpace=wrap;html=1;" vertex="1" parent="1">
          <mxGeometry x="295" y="280" width="190" height="60" as="geometry" />
        </mxCell>
        <mxCell id="vQSaiQfxS73kR9lanArh-7" value="" style="edgeStyle=orthogonalEdgeStyle;rounded=0;orthogonalLoop=1;jettySize=auto;html=1;" edge="1" parent="1" source="vQSaiQfxS73kR9lanArh-4" target="vQSaiQfxS73kR9lanArh-6">
          <mxGeometry relative="1" as="geometry" />
        </mxCell>
        <mxCell id="vQSaiQfxS73kR9lanArh-4" value="CLUSTERING MODEL" style="rounded=0;whiteSpace=wrap;html=1;" vertex="1" parent="1">
          <mxGeometry x="295" y="380" width="190" height="60" as="geometry" />
        </mxCell>
        <mxCell id="vQSaiQfxS73kR9lanArh-9" value="" style="edgeStyle=orthogonalEdgeStyle;rounded=0;orthogonalLoop=1;jettySize=auto;html=1;" edge="1" parent="1" source="vQSaiQfxS73kR9lanArh-6" target="vQSaiQfxS73kR9lanArh-8">
          <mxGeometry relative="1" as="geometry" />
        </mxCell>
        <mxCell id="vQSaiQfxS73kR9lanArh-6" value="REPRESENTATION MODEL" style="rounded=0;whiteSpace=wrap;html=1;" vertex="1" parent="1">
          <mxGeometry x="295" y="480" width="190" height="60" as="geometry" />
        </mxCell>
        <mxCell id="vQSaiQfxS73kR9lanArh-11" value="" style="edgeStyle=orthogonalEdgeStyle;rounded=0;orthogonalLoop=1;jettySize=auto;html=1;" edge="1" parent="1" source="vQSaiQfxS73kR9lanArh-8" target="vQSaiQfxS73kR9lanArh-10">
          <mxGeometry relative="1" as="geometry" />
        </mxCell>
        <mxCell id="vQSaiQfxS73kR9lanArh-8" value="BERT TOPIC" style="rounded=0;whiteSpace=wrap;html=1;" vertex="1" parent="1">
          <mxGeometry x="295" y="584.5" width="190" height="60" as="geometry" />
        </mxCell>
        <mxCell id="vQSaiQfxS73kR9lanArh-10" value="LLM" style="rounded=0;whiteSpace=wrap;html=1;" vertex="1" parent="1">
          <mxGeometry x="295" y="680" width="190" height="60" as="geometry" />
        </mxCell>
      </root>
    </mxGraphModel>
  </diagram>
</mxfile>
